<svg xmlns="http://www.w3.org/2000/svg" viewBox="0 0 680 560" role="img" aria-labelledby="t d"><title id="t">Mascota buscando una página</title><desc id="d">Un perro curioso observa una lupa y huellas.</desc><defs><linearGradient id="a" x1="60" y1="35" x2="620" y2="530" gradientUnits="userSpaceOnUse"><stop stop-color="#edfaff"/><stop offset="1" stop-color="#dbeaff"/></linearGradient><linearGradient id="b" x1="0" x2="1" y1="0" y2="1"><stop stop-color="#2ab5e8"/><stop offset="1" stop-color="#1858b8"/></linearGradient><filter id="s"><feDropShadow dx="0" dy="14" stdDeviation="15" flood-color="#123f78" flood-opacity=".15"/></filter></defs><path d="M77 72c79-63 178-44 260-7 94-48 210-18 265 64 68 102 28 266-53 349-91 94-252 95-366 51C67 485 13 388 27 272 37 190 23 115 77 72Z" fill="url(#a)"/><g filter="url(#s)"><circle cx="443" cy="229" r="111" fill="#fff"/><circle cx="443" cy="229" r="76" fill="#eaf6fd" stroke="#1858b8" stroke-width="18"/><path d="m519 305 85 85" stroke="#1858b8" stroke-width="28" stroke-linecap="round"/></g><g transform="translate(108 160)"><ellipse cx="129" cy="224" rx="108" ry="86" fill="#8fa0b4"/><circle cx="129" cy="129" r="85" fill="#b3bfcc"/><path d="M61 102 34 38l69 43M198 102l32-64-75 43" fill="#73859b"/><path d="M84 127c7 7 15 7 22 0M152 127c7 7 15 7 22 0" fill="none" stroke="#45342f" stroke-width="7" stroke-linecap="round"/><ellipse cx="129" cy="151" rx="16" ry="11" fill="#45342f"/><path d="M129 163c-4 22-27 27-43 13M129 163c4 22 27 27 43 13" fill="none" stroke="#45342f" stroke-width="5" stroke-linecap="round"/><path d="M48 231v94M210 231v94M88 280v67M171 280v67" stroke="#73859b" stroke-width="31" stroke-linecap="round"/><path d="M70 350h33M154 350h33" stroke="#45342f" stroke-width="11" stroke-linecap="round"/><path d="M55 226c49 39 99 39 148 0" fill="none" stroke="url(#b)" stroke-width="17"/></g><g fill="#1858b8" opacity=".4"><ellipse cx="530" cy="102" rx="11" ry="16" transform="rotate(-25 530 102)"/><ellipse cx="559" cy="89" rx="9" ry="14" transform="rotate(10 559 89)"/><ellipse cx="576" cy="117" rx="10" ry="14" transform="rotate(32 576 117)"/><path d="M548 111c-18 3-29 17-25 29 4 11 18 14 31 7 12 7 27 4 31-8 4-12-8-26-26-28l-6 3-5-3Z"/></g></svg>
