<svg xmlns="http://www.w3.org/2000/svg" viewBox="0 0 680 560" role="img" aria-labelledby="t d"><title id="t">Comunidad y mascotas</title><desc id="d">Una familia llega con un perro y un gato a un centro veterinario.</desc><defs><linearGradient id="a" x1="55" y1="35" x2="625" y2="530" gradientUnits="userSpaceOnUse"><stop stop-color="#edfaff"/><stop offset="1" stop-color="#dceaff"/></linearGradient><linearGradient id="b" x1="0" x2="1" y1="0" y2="1"><stop stop-color="#2ab5e8"/><stop offset="1" stop-color="#1858b8"/></linearGradient><filter id="s"><feDropShadow dx="0" dy="14" stdDeviation="15" flood-color="#123f78" flood-opacity=".15"/></filter></defs><path d="M77 72c79-62 178-43 260-7 94-48 210-18 265 64 68 102 28 266-53 349-91 94-252 95-366 51C67 485 13 388 27 272 37 190 23 115 77 72Z" fill="url(#a)"/><g filter="url(#s)"><path d="M143 188 340 65l197 123v269H143V188Z" fill="#fff"/><path d="M118 200 340 61l222 139" fill="none" stroke="url(#b)" stroke-width="24" stroke-linecap="round"/><rect x="269" y="280" width="142" height="177" rx="14" fill="#eaf5fb"/><path d="M306 122h68v60h60v68h-60v60h-68v-60h-60v-68h60v-60Z" fill="url(#b)"/><circle cx="340" cy="216" r="31" fill="none" stroke="#fff" stroke-width="7"/><path d="M327 219c8 8 18 8 26 0" fill="none" stroke="#fff" stroke-width="5" stroke-linecap="round"/></g><g transform="translate(65 256)"><circle cx="75" cy="52" r="38" fill="#f0b793"/><path d="M39 50c0-36 16-52 40-52 28 0 42 20 37 54-13-6-24-17-29-31-11 16-26 25-48 29Z" fill="#6e4b3b"/><path d="M42 90h66l20 133H22L42 90Z" fill="#1858b8"/><path d="M48 55c3 3 7 3 10 0M83 55c3 3 7 3 10 0M64 68c5 4 11 4 16 0" fill="none" stroke="#6a3936" stroke-width="3" stroke-linecap="round"/><path d="M30 119c-17 22-19 50-15 78M118 119c18 21 22 49 18 78" fill="none" stroke="#f0b793" stroke-width="17" stroke-linecap="round"/></g><g transform="translate(489 257)"><circle cx="72" cy="51" r="38" fill="#ffd4bd"/><path d="M37 49c-2-36 15-52 40-52 27 0 41 20 36 53-12-5-21-15-26-29-12 15-28 24-50 28Z" fill="#193c6b"/><path d="M39 89h66l21 134H20L39 89Z" fill="#25afe4"/><path d="M46 54c3 3 7 3 10 0M80 54c3 3 7 3 10 0M61 67c5 4 11 4 16 0" fill="none" stroke="#6a3936" stroke-width="3" stroke-linecap="round"/><path d="M28 118c-17 21-20 50-15 79M116 118c18 21 22 49 18 79" fill="none" stroke="#ffd4bd" stroke-width="17" stroke-linecap="round"/></g><g transform="translate(177 370)"><ellipse cx="65" cy="72" rx="54" ry="44" fill="#8fa0b4"/><circle cx="65" cy="36" r="42" fill="#b3bfcc"/><path d="M31 25 20 0l29 16M99 25l13-25-32 16" fill="#73859b"/><ellipse cx="65" cy="46" rx="8" ry="6" fill="#45342f"/><path d="M65 53c-3 9-11 11-18 6M65 53c3 9 11 11 18 6" fill="none" stroke="#45342f" stroke-width="3"/><path d="M27 74v44M103 74v44M45 98v32M85 98v32" stroke="#73859b" stroke-width="15" stroke-linecap="round"/></g><g transform="translate(420 395)"><ellipse cx="47" cy="55" rx="38" ry="34" fill="#7b8ca3"/><circle cx="47" cy="26" r="31" fill="#91a2b7"/><path d="M22 19 15-2l22 13M72 19l8-21-23 13" fill="#74869e"/><path d="M31 27c3 2 6 2 9 0M54 27c3 2 6 2 9 0" fill="none" stroke="#26364c" stroke-width="3" stroke-linecap="round"/><path d="m47 36-4 4 4 3 4-3-4-4Z" fill="#26364c"/><path d="M22 58v31M72 58v31M33 75v25M61 75v25" stroke="#71839a" stroke-width="12" stroke-linecap="round"/></g></svg>
